PathFileType	4	(X/Y/Z)	 s09c0103.trc
DataRate	CameraRate	NumFrames	NumMarkers	Units	OrigDataRate	OrigDataStartFrame	OrigNumFrames
200	200	4	50	mm	200	1251	2000
Frame#	Time	racr			lacr			c7			jug			rlel			rdr			llel			ldr			s2			lic			ric			lasi			rasi			rpsi			lpsi			rgt			lgt			rth1			rth2			rth3			rth4			rlfc			rmfc			rsh1			rsh2			rsh3			rsh4			rlmal			rmmal			rcal			rtoe			rmt5			lth1			lth2			lth4			lth3			llfc			lmfc			llmal			lmmal			lcal			lmt5			lsh1			lsh2			lsh3			lsh4			ltoe			SBIKE			LBIKE			RBIKE			
		X1	Y1	Z1	X2	Y2	Z2	X3	Y3	Z3	X4	Y4	Z4	X5	Y5	Z5	X6	Y6	Z6	X7	Y7	Z7	X8	Y8	Z8	X9	Y9	Z9	X10	Y10	Z10	X11	Y11	Z11	X12	Y12	Z12	X13	Y13	Z13	X14	Y14	Z14	X15	Y15	Z15	X16	Y16	Z16	X17	Y17	Z17	X18	Y18	Z18	X19	Y19	Z19	X20	Y20	Z20	X21	Y21	Z21	X22	Y22	Z22	X23	Y23	Z23	X24	Y24	Z24	X25	Y25	Z25	X26	Y26	Z26	X27	Y27	Z27	X28	Y28	Z28	X29	Y29	Z29	X30	Y30	Z30	X31	Y31	Z31	X32	Y32	Z32	X33	Y33	Z33	X34	Y34	Z34	X35	Y35	Z35	X36	Y36	Z36	X37	Y37	Z37	X38	Y38	Z38	X39	Y39	Z39	X40	Y40	Z40	X41	Y41	Z41	X42	Y42	Z42	X43	Y43	Z43	X44	Y44	Z44	X45	Y45	Z45	X46	Y46	Z46	X47	Y47	Z47	X48	Y48	Z48	X49	Y49	Z49	X50	Y50	Z50	
1251	6.2550	517.198198	1242.712883	-122.603466	513.620252	1206.006696	-436.400096	501.638906	1271.366290	-278.697938	446.906178	1139.499914	-272.903618	500.932396	1020.105817	1.921903	699.601124	877.539001	-48.638898	453.760023	950.716983	-530.140667	682.891503	887.575562	-443.859009	1.597711	1132.819603	-225.939203	114.229130	1143.609116	-391.387295	149.360881	1127.566556	-84.060041	166.439978	1093.021747	-367.769925	192.392543	1078.927309	-112.540251	35.698757	1159.710862	-168.509384	22.861408	1173.004720	-273.486804	121.123947	976.757298	-50.583288	110.359393	1045.267194	-431.441411	196.825255	859.811318	-57.981556	258.298549	796.921114	-61.947083	275.339289	710.476721	-75.044818	288.080015	812.408393	-76.376955	309.466480	619.790676	-106.082886	297.340213	600.824097	-203.303636	257.827969	535.184745	-72.838510	249.652211	446.455730	-84.052936	199.445285	374.715548	-81.489730	274.977296	440.036320	-113.801611	160.229803	279.692078	-77.868536	162.562848	286.744824	-154.996288	77.829184	276.721315	-117.887213	306.151801	141.758083	-129.414780	229.061483	166.993949	-61.890821	242.759593	1001.154295	-418.074586	326.580689	999.350478	-402.984483	334.982052	1030.198746	-382.225462	404.999792	953.543800	-402.848058	488.400816	894.639236	-384.314722	494.442067	875.469135	-281.057066	298.475730	576.927714	-411.199279	311.882367	582.447667	-336.629838	216.692470	552.676530	-373.645809	374.757967	477.273529	-432.043282	440.540141	810.570262	-409.341180	414.859286	727.192484	-405.816251	349.524498	666.810857	-409.864347	437.081940	714.042225	-375.868320	467.202832	476.151902	-362.751424	-65.327604	851.796396	-238.928481	20.870806	85.036489	-442.186058	21.092359	84.161979	-43.823439	
1252	6.2600	516.388071	1242.198008	-122.148010	514.534152	1206.018011	-435.731819	501.928310	1271.170607	-277.569395	446.535328	1139.569380	-272.369570	500.691263	1019.551617	2.190504	699.313058	877.503263	-48.315635	453.056265	951.404902	-530.708151	682.185863	888.063224	-443.891280	1.624057	1133.988178	-227.217757	114.575185	1144.695866	-392.174507	148.957944	1128.611722	-84.687124	166.540543	1093.793181	-368.609965	192.009396	1079.666810	-112.926948	35.547618	1160.835748	-169.605086	22.610848	1173.982055	-274.334543	121.287624	978.132747	-50.912744	110.667336	1045.634500	-431.913208	198.841676	861.761782	-58.693147	261.209329	799.800319	-62.903745	279.472140	713.682117	-76.146419	290.840709	815.734132	-77.362665	314.232919	622.615269	-106.580656	300.588118	604.039040	-204.092543	260.072616	539.165100	-73.469420	249.150121	450.715342	-84.574502	196.838659	380.525429	-81.752187	273.979442	443.668828	-114.552268	154.795858	286.182207	-77.766729	157.128628	293.443276	-155.150453	72.152832	285.506202	-117.954921	296.978052	144.688245	-129.297393	220.518125	172.063358	-61.875006	242.752595	998.582590	-418.506396	326.497457	995.653565	-403.428920	335.298010	1027.188029	-383.680056	404.276727	948.702360	-402.952528	487.390658	889.192009	-383.785221	494.493216	869.948597	-282.279105	302.468024	567.598223	-411.295683	315.336340	573.658609	-336.430591	220.970401	540.559667	-374.692512	382.365091	471.888946	-432.370696	440.196379	803.660024	-409.015300	416.001500	719.783026	-405.531409	351.743496	658.336398	-409.936927	438.258875	707.295201	-375.461833	474.783381	475.030106	-362.979258	-65.315922	851.802411	-238.889099	20.861015	85.038775	-442.190922	21.121617	84.157988	-43.818477	
1253	6.2650	515.573306	1241.801387	-121.212940	515.153177	1205.935660	-434.290619	502.165760	1271.159141	-276.201902	445.694945	1140.010452	-271.544249	500.398590	1018.959460	2.558288	699.038881	877.393676	-47.893236	452.522801	952.366124	-531.078915	681.526891	888.454748	-443.832975	1.667221	1134.981356	-228.498976	115.079400	1145.579074	-393.020576	148.649180	1129.379948	-85.247173	166.748206	1094.418791	-369.517096	191.739992	1080.474607	-113.268233	35.326605	1161.789956	-170.806987	20.869693	1175.306048	-274.681007	121.289012	979.447828	-51.615412	110.854671	1045.432556	-432.248680	201.086859	863.966503	-59.554748	264.477826	802.883953	-63.991224	284.200542	717.060327	-76.983819	293.732465	819.620531	-78.813228	319.218967	625.383236	-107.406294	303.969200	607.602643	-204.940705	262.626370	543.249312	-74.001545	248.907267	455.220950	-85.017800	194.472235	386.704299	-81.924388	273.397539	447.509572	-115.155901	149.655408	293.742596	-77.618570	152.302185	300.496427	-155.268479	66.966137	294.560477	-118.050593	288.128546	148.267920	-129.049336	212.366514	177.578429	-61.818534	242.598865	995.266309	-419.107761	326.285541	991.125861	-404.018618	335.592741	1022.739289	-384.677764	403.279939	942.791907	-403.356683	487.180598	882.849610	-382.767367	493.327676	863.582334	-282.595094	306.163284	557.450425	-411.228108	318.368076	564.220405	-336.258376	225.301494	526.951178	-374.675574	389.543435	465.823768	-432.682001	439.716066	795.811747	-409.296562	416.864837	711.395502	-405.385707	353.642535	649.035569	-410.011519	438.994178	699.439637	-375.119141	481.707936	473.445586	-363.209193	-65.328828	851.794657	-238.844752	20.860526	85.038820	-442.179339	21.151321	84.168784	-43.795849	
1254	6.2700	514.688479	1241.375289	-120.130092	516.041447	1206.213455	-433.481123	502.438631	1271.223461	-274.633162	445.141954	1140.423555	-270.705403	499.993283	1018.191534	2.970690	698.735702	877.352043	-47.475829	452.069637	953.116802	-531.237214	681.029713	888.824335	-443.706260	1.701809	1135.736615	-229.796824	115.469837	1146.309201	-393.765662	148.254281	1129.990956	-86.123294	167.022469	1094.854733	-370.451596	191.519805	1080.941824	-113.648848	35.189206	1162.392305	-171.904961	25.568294	1175.630512	-277.228617	121.551512	980.748020	-52.245359	110.984375	1044.632658	-432.417031	203.595634	866.240871	-60.182623	268.074770	806.343339	-65.048995	288.957670	720.864150	-77.803869	296.865645	823.287526	-80.412794	324.381897	628.560836	-108.245474	307.237190	611.307423	-206.276498	265.387694	547.608482	-74.402252	248.950838	460.044341	-85.404014	192.450865	393.172355	-82.093417	273.069896	451.570060	-115.598640	144.957676	301.304789	-77.583739	147.826292	307.877356	-155.348928	62.195526	304.188931	-118.102203	279.508532	152.372212	-128.910504	204.500838	183.659280	-61.681213	242.320727	991.202353	-419.868256	325.935338	985.819696	-404.796251	335.803692	1017.459479	-385.839019	402.130893	936.199513	-403.606252	484.189752	874.205578	-383.617280	491.709177	855.824349	-282.976253	309.451697	546.451144	-411.101499	322.151032	554.027443	-335.108626	229.002489	512.985816	-374.778189	396.055099	459.246985	-433.275642	438.924974	786.957061	-409.665873	417.413426	702.219132	-405.431566	355.208911	638.912669	-410.087238	439.505990	690.825212	-374.689701	488.028924	470.997235	-363.461132	-65.333557	851.802743	-238.808822	20.866345	85.040392	-442.182068	21.210915	84.137627	-43.758984	
